<?xml version="1.0" standalone="no"?><!DOCTYPE svg PUBLIC "-//W3C//DTD SVG 1.1//EN" "http://www.w3.org/Graphics/SVG/1.1/DTD/svg11.dtd"><svg t="1675954629179" class="icon" viewBox="0 0 1024 1024" version="1.1" xmlns="http://www.w3.org/2000/svg" p-id="24451" xmlns:xlink="http://www.w3.org/1999/xlink" width="200" height="200"><path d="M751.2064 141.312c-45.4656-45.4656-119.2448-45.4656-164.7104 0L513.024 214.784 439.552 141.312c-45.4656-45.4656-119.2448-45.4656-164.7104 0-45.4656 45.4656-45.4656 119.2448 0 164.7104l8.0896 8.0896h460.1856l8.0896-8.0896c45.4656-45.5168 45.4656-119.2448 0-164.7104z" fill="#F55C04" p-id="24452"></path><path d="M816.128 272.8448H209.8688c-71.9872 0-130.5088 58.5728-130.5088 130.5088v15.2064c0 51.968 30.5152 96.8704 74.5472 117.9136v217.3952c0 103.5264 84.224 187.6992 187.6992 187.6992h342.784c103.5264 0 187.6992-84.224 187.6992-187.6992v-217.3952c44.032-20.992 74.5472-65.9456 74.5472-117.9136v-15.2064c0.0512-71.9872-58.5216-130.5088-130.5088-130.5088z m-5.4272 480.9728c0 69.632-56.6272 126.2592-126.2592 126.2592H341.6064c-69.632 0-126.2592-56.6272-126.2592-126.2592v-204.7488h595.3536v204.7488z m74.5472-335.2576c0 38.0928-30.976 69.0688-69.0688 69.0688H209.8688c-38.0928 0-69.0688-30.976-69.0688-69.0688v-15.2064c0-38.0928 30.976-69.0688 69.0688-69.0688H816.128c38.0928 0 69.0688 30.976 69.0688 69.0688v15.2064z" fill="#333333" p-id="24453"></path></svg>